# xmcd
#
# Track frame offsets:
#	150
#	14275
#	27437
#	47070
#	61305
#	74245
#	91982
#	108435
#	120870
#	137785
#	152055
#	168395
#
# Disc length: 2473 seconds
#
# Revision: 5
# Processed by: cddbd v1.5.1PL0 Copyright (c) Steve Scherf et al.
# Submitted via: dBpowerAMP V4.0
#
DISCID=a009a70c
DTITLE=Darryl Worley - Hard Rain Don't Last
DYEAR=2000
DGENRE=Country
TTITLE0=A Good Day To Run
TTITLE1=Who's Gonna Get Me Over You?
TTITLE2=Second Wind
TTITLE3=Hard Rain Don't Last
TTITLE4=Too Many Pockets
TTITLE5=Those Less Fortunate Than I
TTITLE6=When You Need My Love
TTITLE7=Sideways
TTITLE8=The Way Things Are Goin'
TTITLE9=Feels Like Work
TTITLE10=Is It Just Us?
TTITLE11=If I Could Just Be Me
EXTD=
EXTT0=
EXTT1=
EXTT2=
EXTT3=
EXTT4=
EXTT5=
EXTT6=
EXTT7=
EXTT8=
EXTT9=
EXTT10=
EXTT11=
PLAYORDER=
